<svg width="102" height="103" viewBox="0 0 102 103" fill="none" xmlns="http://www.w3.org/2000/svg">
<path d="M51.0192 102.652C49.4381 102.652 47.9624 102.275 46.5921 101.615L32.5729 94.1719C30.4647 93.1355 31.5188 92.7586 32.1513 92.5702C34.9973 91.7222 35.5243 91.5338 38.4757 90.0263C38.7919 89.8378 39.2135 89.932 39.5298 90.1205L50.2813 95.8679C50.7029 96.0563 51.23 96.0563 51.5462 95.8679L93.6037 74.1031C94.0254 73.9146 94.2362 73.5378 94.2362 73.0667V29.6312C94.2362 29.1601 94.0254 28.7833 93.6037 28.5948L51.5462 6.92421C51.1246 6.73577 50.5975 6.73577 50.2813 6.92421L8.22379 28.5948C7.80216 28.7833 7.59134 29.2544 7.59134 29.6312V73.0667C7.59134 73.4435 7.80216 73.9146 8.22379 74.1031L19.7132 80.0389C25.9322 82.8655 29.8323 79.5678 29.8323 76.2701V33.4C29.8323 32.8347 30.3593 32.2694 31.0972 32.2694H36.473C37.1054 32.2694 37.7378 32.7405 37.7378 33.4V76.2701C37.7378 83.7135 33.2053 88.0476 25.2998 88.0476C22.8754 88.0476 20.9781 88.0476 15.6023 85.6921L4.53453 80.0389C1.79394 78.6256 0.107422 75.9875 0.107422 73.1609V29.7255C0.107422 26.8989 1.79394 24.2607 4.53453 22.8474L46.5921 1.08257C49.2272 -0.236508 52.8111 -0.236508 55.4463 1.08257L97.5038 22.8474C100.244 24.2607 101.931 26.8989 101.931 29.7255V73.1609C101.931 75.9875 100.244 78.6256 97.5038 80.0389L55.4463 101.804C54.076 102.369 52.4949 102.652 51.0192 102.652ZM63.9843 72.784C45.538 72.784 41.7433 65.2464 41.7433 58.8394C41.7433 58.2741 42.2704 57.7088 43.0082 57.7088H48.4894C49.1218 57.7088 49.6489 58.0857 49.6489 58.651C50.4921 63.6447 52.9165 66.0944 64.0897 66.0944C72.9439 66.0944 76.7386 64.3042 76.7386 60.0643C76.7386 57.6146 75.6845 55.8244 61.8761 54.5995C50.3867 53.5631 43.219 51.3018 43.219 43.1047C43.219 35.4729 50.3867 30.9503 62.4032 30.9503C75.8953 30.9503 82.536 35.096 83.3792 44.1411C83.3792 44.4238 83.2738 44.7064 83.063 44.9891C82.8522 45.1775 82.536 45.366 82.2197 45.366H76.7386C76.2115 45.366 75.6845 44.9891 75.5791 44.518C74.3142 39.3359 71.0466 37.6399 62.4032 37.6399C52.7057 37.6399 51.5462 40.655 51.5462 42.9163C51.5462 45.6486 52.9165 46.4966 65.987 48.0041C78.9521 49.5117 85.0657 51.6787 85.0657 59.7816C84.9603 68.073 77.371 72.784 63.9843 72.784Z" fill="#539E43"/>
</svg>
