<svg width="120" height="103" viewBox="0 0 120 103" fill="none" xmlns="http://www.w3.org/2000/svg">
<path d="M0.811523 51.3746V102.749H60.3733H119.935V51.3746V7.62939e-06H60.3733H0.811523V51.3746Z" fill="#007ACC"/>
<path d="M27.1535 51.7157L27.1157 55.9236H34.8682L42.6206 55.9236L42.6206 74.924V93.9244H48.1041H53.5876V74.924L53.5876 55.9236H61.34H69.0925V51.7973C69.0925 49.514 69.0358 47.6058 68.9602 47.5568C68.9034 47.4916 59.4681 47.459 48.0285 47.4753L27.2102 47.5242L27.1535 51.7157Z" fill="white"/>
<path d="M96.9326 47.4049C99.958 48.0573 102.265 49.2153 104.383 51.1071C105.479 52.1183 107.105 53.9613 107.238 54.4016C107.276 54.5321 102.095 57.533 98.9558 59.2129C98.8423 59.2781 98.3885 58.8541 97.878 58.2017C96.3464 56.2772 94.7392 55.4454 92.2811 55.2987C88.6696 55.0866 86.3438 56.7176 86.3627 59.4412C86.3627 60.2404 86.4951 60.7134 86.8733 61.3658C87.6674 62.7847 89.1423 63.6328 93.7749 65.3616C102.303 68.5256 105.952 70.6132 108.221 73.5815C110.755 76.8923 111.322 82.1765 109.601 86.1071C107.71 90.3802 103.021 93.2832 96.4221 94.2455C94.3799 94.5554 89.5394 94.5064 87.346 94.1639C82.5621 93.43 78.0241 91.3913 75.2256 88.7166C74.1289 87.6728 71.9923 84.9491 72.1247 84.7534C72.1814 84.6882 72.673 84.4272 73.2213 84.15C73.7508 83.889 75.7551 82.8941 77.6459 81.9482L81.0684 80.2357L81.7869 81.149C82.789 82.4701 84.9824 84.2804 86.306 84.8839C90.1066 86.6127 95.3254 86.368 97.8969 84.3783C98.9936 83.5139 99.4474 82.6169 99.4474 81.2958C99.4474 80.1052 99.2772 79.5833 98.5587 78.6863C97.6322 77.5447 95.7414 76.5824 90.3713 74.5764C84.2261 72.293 81.5789 70.8741 79.1586 68.6234C77.7594 67.3187 76.4358 65.2311 75.8874 63.486C75.4336 62.0344 75.3202 58.3974 75.6794 56.9296C76.9463 51.8084 81.4276 48.2367 87.8943 47.1766C89.9932 46.8341 94.8716 46.9646 96.9326 47.4049Z" fill="white"/>
</svg>
