<svg width="123" height="103" viewBox="0 0 123 103" fill="none" xmlns="http://www.w3.org/2000/svg">
<path d="M112.995 79.5625C106.321 79.4205 101.148 79.9904 96.809 81.5562C95.5575 81.9832 93.5548 81.9836 93.3879 83.336C94.0558 83.9059 94.139 84.8312 94.7231 85.6142C95.725 87.0375 97.4763 88.9602 99.0618 89.9571C100.814 91.0959 102.566 92.2348 104.401 93.2317C107.655 94.9404 111.327 95.9368 114.497 97.6456C116.333 98.6415 118.168 99.9238 120.003 100.992C120.922 101.561 121.505 102.486 122.673 102.842V102.629C122.089 101.988 121.922 101.063 121.339 100.351C120.505 99.6388 119.67 98.9979 118.836 98.286C116.416 95.5098 113.412 93.0892 110.158 91.0959C107.489 89.5296 101.648 87.3939 100.564 84.7598C100.564 84.7598 100.48 84.6888 100.397 84.6177C102.232 84.4753 104.401 83.9058 106.154 83.4784C108.991 82.8375 111.577 82.98 114.497 82.3396C115.832 82.0546 117.167 81.6987 118.502 81.3427V80.7023C117.001 79.4205 115.916 77.7122 114.33 76.5018C110.075 73.3688 105.403 70.3081 100.564 67.7454C97.9767 66.3216 94.6394 65.3958 91.8862 64.1859C90.8854 63.758 89.2162 63.545 88.6326 62.8331C87.1304 61.2668 86.296 59.2025 85.2115 57.3513C82.7928 53.4354 80.4557 49.0933 78.3699 44.9644C76.8687 42.1877 75.9506 39.4111 74.115 36.8485C65.5214 24.746 56.1767 17.4135 41.826 10.2229C38.7389 8.72809 35.0681 8.0872 31.1466 7.30428C29.0613 7.23282 26.9749 7.0908 24.8891 7.01934C23.5544 6.52091 22.2191 5.16856 21.0508 4.52766C16.2961 1.96452 4.03066 -3.58783 0.526353 3.74474C-1.72646 8.37215 3.8637 12.9281 5.78255 15.2777C7.20155 16.915 9.03667 18.7658 10.038 20.617C10.6221 21.8265 10.7886 23.1087 11.3727 24.3901C12.708 27.5217 13.9589 31.0107 15.7114 33.9298C16.6295 35.4247 17.6302 36.9909 18.7985 38.3433C19.4659 39.1262 20.6336 39.4826 20.8844 40.7639C19.7166 42.1878 19.6329 44.3235 18.965 46.1033C15.9616 54.1477 17.1298 64.1145 21.3847 70.0232C22.7195 71.8025 25.8904 75.7189 30.1453 74.2236C33.8998 72.9423 33.0655 68.8843 34.15 65.3248C34.4007 64.4699 34.2338 63.9009 34.7342 63.3315C34.7346 63.4025 34.7342 63.474 34.7342 63.474C35.9024 65.4672 37.0702 67.3895 38.1547 69.3827C40.7415 72.8708 45.2466 76.5018 49.0011 78.9225C51.0042 80.2034 52.5892 82.4106 55.0922 83.1939V82.98H54.9252C54.4243 82.3391 53.6737 82.0546 53.0063 81.5562C51.5046 80.2748 49.8354 78.7085 48.6677 77.2847C45.1639 73.2978 42.0762 68.8843 39.323 64.3279C37.9883 62.1212 36.82 59.7005 35.7355 57.4938C35.2345 56.639 35.2345 55.3581 34.4002 54.9311C33.1487 56.4969 31.3136 57.8497 30.3955 59.772C28.8111 62.8331 28.6436 66.6061 28.0595 70.5216C27.726 70.5931 27.8925 70.5216 27.7255 70.6641C25.0561 70.0942 24.138 67.7454 23.1366 65.7517C20.6336 60.6974 20.2165 52.5814 22.3861 46.7442C22.9702 45.2489 25.4732 40.5505 24.4719 39.1266C23.9715 37.7738 22.3023 36.9909 21.3847 35.9231C20.3002 34.5703 19.1319 32.8619 18.3813 31.3667C16.3787 27.3802 15.3774 22.9663 13.2084 18.9793C12.207 17.1281 10.4552 15.2063 9.03667 13.498C7.45175 11.5757 5.69932 10.2229 4.4478 7.94472C4.03116 7.1618 3.44649 5.88046 4.11386 5.02607C4.28083 4.45664 4.61425 4.24316 5.28214 4.10068C6.36667 3.31731 9.45382 4.31416 10.5383 4.74113C13.6255 5.80854 16.2117 6.80584 18.7985 8.30067C19.9662 9.01258 21.2177 10.3654 22.7194 10.7213H24.4719C27.1418 11.2193 30.1452 10.8638 32.6483 11.5043C37.0707 12.7141 41.0748 14.4944 44.6629 16.4166C55.5931 22.3253 64.6033 30.7262 70.6944 40.764C71.6957 42.4008 72.1123 43.8965 73.0304 45.6048C74.7828 49.0934 76.9519 52.6529 78.7038 56.07C80.4557 59.4156 82.1244 62.8331 84.6274 65.6097C85.8794 67.1041 90.8849 67.8875 93.1377 68.6708C94.8063 69.3113 97.3931 69.8812 98.8948 70.6641C101.731 72.1585 104.568 73.8677 107.238 75.505C108.573 76.3589 112.745 78.1391 112.995 79.5625L112.995 79.5625Z" fill="#00546B"/>
</svg>
