<svg width="76" height="79" viewBox="0 0 76 79" fill="none" xmlns="http://www.w3.org/2000/svg">
<path d="M11 51.1251H14.51V40.7711H23.96V51.1251H27.44V28.3091H23.96V37.6401H14.51V28.3091H11V51.1251Z" fill="black"/>
<path d="M37.4363 51.5591C39.4163 51.5591 41.1863 50.5361 42.6863 49.2031H42.8063L43.0763 51.1251H45.9263V40.8951C45.9263 36.3381 44.0363 33.6411 39.9263 33.6411C37.2863 33.6411 34.9463 34.7881 33.2663 35.8731L34.5563 38.3221C35.9363 37.3921 37.5863 36.5551 39.3263 36.5551C41.7263 36.5551 42.4163 38.2911 42.4463 40.2751C35.6063 41.0501 32.6063 42.9411 32.6063 46.5991C32.6063 49.6061 34.6163 51.5591 37.4363 51.5591ZM38.5163 48.7071C37.0463 48.7071 35.9363 48.0251 35.9363 46.3511C35.9363 44.4291 37.5563 43.1581 42.4463 42.5691V46.7231C41.0963 48.0251 39.9563 48.7071 38.5163 48.7071Z" fill="black"/>
<path d="M51.3922 51.1251H54.8722V39.0351C56.3122 37.5471 57.3622 36.7411 58.8922 36.7411C60.8122 36.7411 61.6522 37.8881 61.6522 40.8641V51.1251H65.1322V40.3991C65.1322 36.0901 63.5722 33.6411 60.0622 33.6411C57.8122 33.6411 56.1022 34.9121 54.6022 36.4621H54.5122L54.2122 34.0751H51.3922V51.1251Z" fill="black"/>
<path d="M24 70.5H52.5" stroke="black" stroke-width="2"/>
</svg>
