<svg width="115" height="104" viewBox="0 0 115 104" fill="none" xmlns="http://www.w3.org/2000/svg">
<path d="M0 0.494873H114.647V103.244H0V0.494873Z" fill="#F7DF1E"/>
<path d="M30.1457 86.3594L38.9193 81.6008C40.6119 84.2904 42.1516 86.566 45.8448 86.566C49.3851 86.566 51.617 85.3249 51.617 80.4973V47.6665H62.3909V80.6338C62.3909 90.6347 55.8499 95.1868 46.3067 95.1868C37.688 95.1868 32.685 91.1863 30.1455 86.3586" fill="black"/>
<path d="M68.2429 85.3248L77.0154 80.7727C79.3247 84.1526 82.3261 86.6354 87.6359 86.6354C92.1 86.6354 94.9467 84.635 94.9467 81.8762C94.9467 78.5655 92.0225 77.3929 87.0971 75.4623L84.4043 74.427C76.6311 71.4618 71.4747 67.7374 71.4747 59.8745C71.4747 52.6325 77.6312 47.1145 87.2514 47.1145C94.1007 47.1145 99.026 49.2528 102.566 54.8396L94.1771 59.6673C92.33 56.7018 90.3297 55.5295 87.2516 55.5295C84.0962 55.5295 82.0952 57.3227 82.0952 59.6673C82.0952 62.5642 84.0962 63.737 88.7132 65.5304L91.4065 66.5649C100.565 70.0827 105.721 73.6688 105.721 81.7382C105.721 90.4291 98.1022 95.1877 87.867 95.1877C77.8625 95.1877 71.3979 90.9117 68.2431 85.3248" fill="black"/>
</svg>
