<svg width="116" height="104" viewBox="0 0 116 104" fill="none" xmlns="http://www.w3.org/2000/svg">
<g clip-path="url(#clip0_2_68)">
<path d="M115.224 86.0574C115.224 95.4761 106.625 103.182 96.1159 103.182H19.6847C9.17545 103.182 0.576935 95.4761 0.576935 86.0574V17.558C0.576935 8.13929 9.17545 0.433105 19.6847 0.433105H96.1159C106.625 0.433105 115.224 8.13929 115.224 17.558V86.0574Z" fill="#563D7C"/>
<path d="M31.7299 22.7628H64.2318C70.2265 22.7628 75.0409 23.9884 78.6564 26.4564C82.2719 28.9244 84.089 32.6348 84.089 37.6211C84.089 40.6432 83.2647 43.2287 81.6162 45.3777C79.9677 47.5267 77.6073 49.2056 74.5351 50.3808V50.5487C78.6564 51.3378 81.7848 53.0839 83.9016 55.7869C86.0185 58.5068 87.0863 61.8982 87.0863 65.9947C87.0863 68.3452 86.618 70.5445 85.6813 72.576C84.7446 74.6243 83.2835 76.3871 81.279 77.8646C79.2746 79.342 76.7269 80.5172 73.5984 81.3903C70.47 82.2633 66.7608 82.6998 62.4522 82.6998H31.7299V22.7628ZM43.4381 47.8625H62.5459C65.3558 47.8625 67.6975 47.1573 69.5708 45.7135C71.4441 44.2696 72.3808 42.2214 72.3808 39.5351C72.3808 36.5131 71.5378 34.3809 69.8518 33.1553C68.1658 31.9297 65.7305 31.3085 62.5459 31.3085H43.4381V47.8625ZM43.4381 74.1374H64.1382C67.6975 74.1374 70.47 73.3147 72.4182 71.6526C74.3852 70.0073 75.3781 67.6568 75.3781 64.6348C75.3781 61.6631 74.4039 59.3966 72.4182 57.7848C70.4325 56.1731 67.6975 55.4008 64.1382 55.4008H43.4381V74.1374Z" fill="white"/>
</g>
<defs>
<clipPath id="clip0_2_68">
<rect width="114.647" height="102.749" fill="white" transform="translate(0.576935 0.433105)"/>
</clipPath>
</defs>
</svg>
