<svg width="151" height="103" viewBox="0 0 151 103" fill="none" xmlns="http://www.w3.org/2000/svg">
<path d="M129.848 58.9628C124.575 58.9899 120.008 60.1402 116.178 61.8529C114.763 59.311 113.349 57.0898 113.114 55.4311C112.849 53.5046 112.524 52.327 112.849 50.0261C113.172 47.7247 114.645 44.4602 114.645 44.1927C114.616 43.9518 114.321 42.7745 111.287 42.7477C108.252 42.721 105.63 43.2829 105.335 44.0054C105.041 44.7278 104.451 46.3868 104.068 48.0993C103.538 50.6145 97.9988 59.5248 94.8463 64.2073C93.8151 62.3878 92.9312 60.7824 92.7541 59.4977C92.4893 57.5715 92.1649 56.3938 92.4892 54.093C92.8133 51.7915 94.2865 48.5274 94.2865 48.2598C94.257 48.019 93.9624 46.8417 90.928 46.8149C87.893 46.7881 85.2711 47.3501 84.9765 48.0725C84.6818 48.795 84.3577 50.5074 83.7095 52.1664C83.0905 53.8254 75.7248 68.7026 73.8096 72.5825C72.8374 74.5625 71.9832 76.1412 71.3642 77.2115C70.7455 78.2818 71.3348 77.2918 71.2758 77.3988C70.7455 78.3086 70.4509 78.817 70.4509 78.817V78.844C70.0384 79.5129 69.5964 80.1549 69.3899 80.1549C69.2426 80.1549 68.9479 78.3621 69.4488 75.9007C70.539 70.7362 73.1906 62.6824 73.1615 62.3881C73.1615 62.2543 73.662 60.8359 71.4523 60.1137C69.3015 59.3912 68.5358 60.5953 68.3587 60.5953C68.1819 60.5953 68.0346 61.0234 68.0346 61.0234C68.0346 61.0234 70.4211 51.9529 63.4678 51.9529C59.1073 51.9529 53.0968 56.2609 50.121 60.1942C48.2354 61.1307 44.2284 63.1105 39.9857 65.2247C38.3653 66.0274 36.6859 66.8836 35.0949 67.6596L34.7711 67.338C26.3446 59.1769 10.7586 53.3973 11.4068 42.4267C11.6425 38.4398 13.1746 27.9241 41.3416 15.1874C64.4112 4.75198 82.8846 7.61505 86.0958 13.9834C90.6625 23.0809 76.2256 39.9917 52.243 42.4267C43.1094 43.3632 38.3066 40.1523 37.0989 38.9482C35.832 37.6906 35.6552 37.6371 35.1838 37.8779C34.4178 38.2525 34.8892 39.3763 35.1838 40.0452C35.891 41.731 38.8373 44.7278 43.846 46.2262C48.2357 47.5374 58.9606 48.2598 71.9243 43.711C86.4496 38.6003 97.7929 24.4188 94.4636 12.5652C91.0753 0.497529 69.0369 -3.46259 48.2065 3.25356C35.8023 7.2672 22.3671 13.5285 12.7032 21.743C1.2126 31.4828 -0.61411 39.9917 0.151931 43.5237C2.83337 56.1265 21.9546 64.3411 29.615 70.4151C29.232 70.6021 28.8784 70.7894 28.5543 70.9502C24.7241 72.6625 10.1399 79.5929 6.48649 86.9243C2.36166 95.2191 7.13468 101.186 10.3167 101.989C20.1574 104.477 30.2337 100.009 35.6844 92.6506C41.1053 85.2923 40.4574 75.7399 37.9531 71.3784L37.8644 71.2178L40.8696 69.6124C42.8145 68.5688 44.7296 67.6055 46.4087 66.7758C45.4662 69.1037 44.7882 71.8597 44.435 75.8734C44.0225 80.583 46.1438 86.6834 48.9428 89.0916C50.1803 90.1349 51.6534 90.1619 52.5668 90.1619C55.8077 90.1619 57.2809 87.7267 58.9013 84.8104C60.9048 81.2516 62.6726 77.131 62.6726 77.131C62.6726 77.131 60.4629 88.2889 66.5028 88.2889C68.7125 88.2889 70.9223 85.6934 71.924 84.3555V84.3823C71.924 84.3823 71.9829 84.302 72.1008 84.1147C72.2244 83.9487 72.3423 83.7792 72.4543 83.6066V83.5531C73.3382 82.1617 75.3123 78.9775 78.2586 73.7063C82.059 66.9099 85.7127 58.4009 85.7127 58.4009C85.7127 58.4009 86.0663 60.488 87.1564 63.913C87.8043 65.9468 89.2185 68.1675 90.3087 70.3348C89.4248 71.4586 88.8945 72.1011 88.8945 72.1011L88.9239 72.1278C88.2171 72.9841 87.4213 73.8941 86.5966 74.8036C83.5914 78.068 79.9969 81.7876 79.5255 82.8579C78.9657 84.1152 79.0835 85.0518 80.1737 85.8012C80.9692 86.3364 82.3834 86.4432 83.886 86.3364C86.5966 86.1756 88.4823 85.5604 89.4251 85.1856C90.8982 84.7039 92.5776 83.9815 94.1981 82.9112C97.1444 80.9314 98.9417 78.1218 98.7649 74.3758C98.6765 72.3154 97.9399 70.2818 97.0266 68.3553C97.2917 68.0074 97.5572 67.6593 97.8221 67.285C102.477 61.1037 106.072 54.3076 106.072 54.3076C106.072 54.3076 106.425 56.3947 107.515 59.8196C108.075 61.5589 109.195 63.4589 110.197 65.332C105.836 68.5696 103.096 72.3157 102.153 74.7774C100.415 79.3262 101.77 81.3865 104.333 81.8681C105.482 82.0822 107.132 81.6006 108.37 81.1189C109.902 80.6641 111.758 79.8878 113.467 78.7375C116.413 76.7574 119.242 74.0014 119.094 70.2821C119.006 68.5696 118.505 66.8839 117.828 65.2784C121.54 63.887 126.342 63.0843 132.441 63.7533C145.552 65.1447 148.145 72.5833 147.644 75.6871C147.144 78.7913 144.404 80.5035 143.49 81.0387C142.576 81.5471 142.282 81.7346 142.37 82.109C142.488 82.6711 142.901 82.6441 143.696 82.5374C144.786 82.3765 150.59 79.9954 150.826 74.2695C151.18 66.9101 143.49 58.8828 129.848 58.9628V58.9628ZM28.7311 89.9214C24.4001 94.2293 18.3012 95.8616 15.7084 94.4702C12.9094 92.9985 13.9993 86.6569 19.3324 82.0814C22.5733 79.2986 26.7866 76.7299 29.5561 75.1512C30.1748 74.8033 31.1176 74.2952 32.2372 73.6795C32.414 73.5728 32.5319 73.519 32.5319 73.519C32.7381 73.4119 32.9738 73.2782 33.2095 73.1444C35.1835 79.6732 33.2979 85.3993 28.7311 89.9214V89.9214ZM60.4039 70.3616C58.9013 73.7063 55.7193 82.2955 53.8042 81.8138C52.154 81.4125 51.1525 74.9104 53.4798 68.4885C54.6583 65.2506 57.1627 61.3978 58.6359 59.8991C61.0227 57.4909 63.6151 56.6882 64.2636 57.6782C65.0297 58.9628 61.3468 68.2745 60.4039 70.3616ZM86.5377 81.7068C85.8895 82.0014 85.3003 82.2152 85.0351 82.0549C84.8288 81.9479 85.3 81.5465 85.3 81.5465C85.3 81.5465 88.5704 78.3624 89.8667 76.8907C90.6033 76.0347 91.4872 75.0447 92.43 73.9206V74.2417C92.4303 78.0945 88.3644 80.6633 86.5377 81.7068ZM106.69 77.5326C106.219 77.2115 106.278 76.2215 107.869 73.1176C108.488 71.8868 109.902 69.8264 112.347 67.8731C112.642 68.6758 112.819 69.4516 112.789 70.1743C112.76 74.9906 108.989 76.7834 106.69 77.5326Z" fill="#CF649A"/>
</svg>
