<svg width="83" height="104" viewBox="0 0 83 104" fill="none" xmlns="http://www.w3.org/2000/svg">
<g clip-path="url(#clip0_2_89)">
<path d="M20.6978 103.677C32.1192 103.677 41.3888 96.0053 41.3888 86.5524V69.4275H20.6978C9.2763 69.4275 0.00671387 77.0994 0.00671387 86.5524C0.00671387 96.0053 9.2763 103.677 20.6978 103.677Z" fill="#0ACF83"/>
<path d="M0.00671387 52.3024C0.00671387 42.8495 9.2763 35.1776 20.6978 35.1776H41.3888V69.4273H20.6978C9.2763 69.4273 0.00671387 61.7553 0.00671387 52.3024Z" fill="#A259FF"/>
<path d="M0.00427246 18.0528C0.00427246 8.59991 9.27386 0.927979 20.6953 0.927979H41.3864V35.1777H20.6953C9.27386 35.1777 0.00427246 27.5057 0.00427246 18.0528Z" fill="#F24E1E"/>
<path d="M41.39 0.927979H62.0811C73.5025 0.927979 82.7721 8.59991 82.7721 18.0528C82.7721 27.5057 73.5025 35.1777 62.0811 35.1777H41.39V0.927979Z" fill="#FF7262"/>
<path d="M82.7721 52.3024C82.7721 61.7553 73.5025 69.4273 62.0811 69.4273C50.6596 69.4273 41.39 61.7553 41.39 52.3024C41.39 42.8495 50.6596 35.1776 62.0811 35.1776C73.5025 35.1776 82.7721 42.8495 82.7721 52.3024Z" fill="#1ABCFE"/>
</g>
<defs>
<clipPath id="clip0_2_89">
<rect width="82.7807" height="102.749" fill="white" transform="translate(-0.000366211 0.927979)"/>
</clipPath>
</defs>
</svg>
