<svg width="127" height="103" viewBox="0 0 127 103" fill="none" xmlns="http://www.w3.org/2000/svg">
<path d="M0 51.3457C0 59.9294 9.29375 67.9427 23.9461 72.4594C21.0202 85.7443 23.4217 96.4518 31.4432 100.624C39.6885 104.912 51.9719 101.944 63.6305 92.7529C74.9949 101.573 86.4807 105.044 94.4947 100.86C102.732 96.5592 105.237 85.1254 102.231 71.4259C117.492 66.8753 126.029 60.0424 126.029 51.3457C126.029 42.961 116.718 35.707 102.263 31.2192C105.5 16.9535 102.757 6.50577 94.4035 2.16119C86.3498 -2.02726 74.7307 1.6234 63.1991 10.6744C51.2024 1.06748 39.6979 -1.86564 31.3525 2.49161C23.3067 6.69197 21.0107 17.5941 23.9461 31.1249C9.78851 35.5768 0 42.9945 0 51.3457Z" fill="white"/>
<path d="M99.1999 35.6757C98.0388 35.3153 96.8357 34.9742 95.5969 34.6517C95.8005 33.9023 95.9874 33.1626 96.1536 32.4354C98.8809 20.4953 97.0977 10.8763 91.0084 7.70937C85.1695 4.67265 75.6205 7.83891 65.9765 15.4083C65.0491 16.1362 64.1191 16.9068 63.1895 17.7145C62.5701 17.1801 61.9517 16.6637 61.3349 16.1698C51.2277 8.07608 41.0967 4.66528 35.0134 7.84143C29.1801 10.8869 27.4526 19.9297 29.9077 31.2454C30.1448 32.3384 30.4219 33.4545 30.7353 34.5894C29.3014 34.9564 27.9172 35.3478 26.5928 35.7641C14.7431 39.4901 7.17538 45.3295 7.17538 51.3866C7.17538 57.6424 15.2994 63.9171 27.6417 67.7218C28.6157 68.022 29.6264 68.3059 30.6679 68.5754C30.3298 69.8028 30.0358 71.0055 29.7889 72.1786C27.4481 83.2979 29.2761 92.1271 35.0939 95.1534C41.1031 98.2787 51.1882 95.0662 61.0086 87.3243C61.7848 86.7123 62.5637 86.0633 63.3441 85.3831C64.3556 86.2615 65.3654 87.0929 66.3699 87.8727C75.8821 95.2551 85.2769 98.2361 91.0893 95.2013C97.0925 92.0671 99.0435 82.5825 96.5106 71.0429C96.3171 70.1616 96.092 69.2612 95.8392 68.3449C96.5474 68.156 97.2427 67.9611 97.9207 67.7584C110.752 63.9243 119.1 57.726 119.1 51.3866C119.1 45.3076 111.288 39.4288 99.1999 35.6757Z" fill="#53C1DE"/>
<path d="M96.417 63.6654C95.805 63.8482 95.177 64.0248 94.5371 64.196C93.1206 60.1517 91.2089 55.8511 88.8694 51.4079C91.1019 47.0705 92.9397 42.8249 94.3166 38.8068C95.4615 39.1056 96.5728 39.4207 97.6436 39.7533C108.001 42.969 114.319 47.7234 114.319 51.3869C114.319 55.2891 107.496 60.3547 96.417 63.6654ZM91.8201 71.8806C92.9401 76.9832 93.1001 81.5966 92.3582 85.2031C91.6916 88.4437 90.351 90.6043 88.6935 91.4697C85.1662 93.311 77.6232 90.9175 69.4882 84.604C68.5557 83.8803 67.6163 83.1075 66.674 82.2896C69.8277 79.1789 72.9797 75.5625 76.0559 71.5462C81.4666 71.1132 86.5785 70.4053 91.2143 69.4388C91.4426 70.2694 91.6454 71.0841 91.8201 71.8806ZM45.3331 91.1515C41.8869 92.2491 39.1422 92.2806 37.4831 91.4177C33.9526 89.5813 32.4849 82.4923 34.4869 72.9831C34.7162 71.8941 34.9892 70.7754 35.3037 69.6319C39.8887 70.5463 44.9631 71.2043 50.3868 71.6008C53.4838 75.5309 56.7267 79.1433 59.9948 82.3063C59.2808 82.928 58.5696 83.5199 57.8623 84.0776C53.5198 87.501 49.1682 89.9298 45.3331 91.1515ZM29.1881 63.6415C23.7306 61.9592 19.2235 59.7727 16.1342 57.3868C13.3582 55.2427 11.9566 53.1141 11.9566 51.3869C11.9566 47.7112 18.0328 43.0229 28.1667 39.8363C29.3963 39.4497 30.6835 39.0853 32.0193 38.743C33.4199 42.8518 35.2571 47.1477 37.4743 51.4918C35.2284 55.9003 33.3651 60.2647 31.9508 64.4217C30.9985 64.1748 30.0759 63.915 29.1881 63.6415ZM34.6001 30.4175C32.4967 20.7225 33.8936 13.4089 37.4089 11.5737C41.1534 9.61866 49.4333 12.4062 58.1602 19.3947C58.718 19.8414 59.278 20.3089 59.8396 20.7926C56.5877 23.9418 53.3744 27.527 50.3049 31.4339C45.041 31.874 40.0022 32.5808 35.3695 33.5273C35.0782 32.4707 34.8202 31.4325 34.6001 30.4175ZM82.8793 41.1692C81.7718 39.4439 80.6349 37.7594 79.4758 36.121C83.0469 36.5281 86.4683 37.0686 89.6814 37.73C88.7168 40.5182 87.5145 43.4335 86.0992 46.422C85.0839 44.6837 84.0101 42.9309 82.8793 41.1692ZM63.1912 23.8744C65.3966 26.0293 67.6052 28.4351 69.7775 31.0455C67.5884 30.9522 65.3723 30.9037 63.1378 30.9037C60.9244 30.9037 58.7246 30.9511 56.549 31.0428C58.7236 28.4567 60.9513 26.054 63.1912 23.8744ZM43.3769 41.199C42.2706 42.9291 41.2167 44.6723 40.2174 46.4188C38.825 43.4406 37.6339 40.5121 36.6608 37.6843C39.8542 37.0398 43.2596 36.5129 46.8079 36.1134C45.6325 37.767 44.4862 39.4639 43.3769 41.1986V41.199ZM46.9101 66.9679C43.244 66.599 39.7875 66.0991 36.5949 65.4724C37.5835 62.5942 38.8009 59.6031 40.2228 56.5608C41.2247 58.306 42.2828 60.05 43.3958 61.7838H43.396C44.5298 63.5502 45.7044 65.2805 46.9101 66.9679ZM63.3234 79.2033C61.0573 76.9982 58.7969 74.5589 56.5893 71.935C58.7323 72.0109 60.9172 72.0497 63.1378 72.0497C65.4191 72.0497 67.6743 72.0033 69.8941 71.9142C67.7146 74.5853 65.5139 77.0283 63.3234 79.2033ZM86.1448 56.4058C87.6408 59.4809 88.9019 62.4564 89.9032 65.2856C86.658 65.9532 83.1542 66.491 79.4626 66.8906C80.6245 65.23 81.7714 63.5166 82.8984 61.7542C84.0386 59.9711 85.1212 58.1853 86.1448 56.4058ZM78.7568 59.5999C77.0072 62.3358 75.211 64.9476 73.3875 67.4129C70.0662 67.6271 66.635 67.7374 63.1378 67.7374C59.6547 67.7374 56.2667 67.6399 53.0042 67.4489C51.1072 64.9512 49.272 62.3317 47.5335 59.6234H47.5339C45.8001 56.9225 44.2043 54.1988 42.7583 51.4903C44.2039 48.7756 45.7955 46.0488 47.5194 43.3528L47.519 43.3533C49.2474 40.6501 51.0666 38.0433 52.946 35.5613C56.2747 35.3343 59.688 35.2159 63.1376 35.2159H63.1378C66.6029 35.2159 70.0206 35.3352 73.3482 35.5642C75.199 38.0281 77.0058 40.6264 78.741 43.33C80.496 46.0639 82.1081 48.7726 83.566 51.4291C82.1125 54.1312 80.504 56.8672 78.7568 59.5999ZM88.6202 11.4454C92.3682 13.3947 93.8257 21.2563 91.4709 31.5653C91.3207 32.2231 91.1515 32.8931 90.9678 33.5721C86.3243 32.6058 81.2819 31.8867 76.0027 31.44C72.9273 27.4902 69.7403 23.8994 66.5413 20.7906C67.4014 20.0444 68.2602 19.3329 69.1155 18.6614C77.3785 12.176 85.1015 9.61542 88.6202 11.4454Z" fill="white"/>
<path d="M63.1391 42.3731C68.6588 42.3731 73.1336 46.4086 73.1336 51.387C73.1336 56.3651 68.6588 60.4008 63.1391 60.4008C57.6194 60.4008 53.1446 56.3651 53.1446 51.387C53.1446 46.4086 57.6194 42.3731 63.1391 42.3731Z" fill="#53C1DE"/>
</svg>
